<svg xmlns:xlink="http://www.w3.org/1999/xlink" width="16" height="16" viewBox="0 0 24 24" fill="none" xmlns="http://www.w3.org/2000/svg"><path d="M12 2C17.5228 2 22 6.49365 22 12.0367C22 17.1683 18.1636 21.3998 13.212 22V15.104H15.9172L16.4784 12.0367L13.212 12.0367V10.952C13.212 9.33123 13.8456 8.70775 15.4852 8.70775C15.9425 8.70775 16.3199 8.71779 16.563 8.73787C16.5904 8.74014 16.6161 8.74253 16.64 8.74505C16.6398 8.74504 16.6401 8.74507 16.64 8.74505L16.6404 5.96491C16.6106 5.95663 16.578 5.94835 16.5429 5.9401C16.0499 5.82407 15.0576 5.71556 14.466 5.71556C11.1244 5.71556 9.58397 7.29896 9.58397 10.7151V12.0367H7.52197V15.1039L9.58397 15.104V21.7779C5.22859 20.693 2 16.7434 2 12.0367C2 6.49365 6.4772 2 12 2Z" fill="#121D2B" fill-opacity="0.6"></path></svg>