<svg xmlns:xlink="http://www.w3.org/1999/xlink" width="170" height="40" viewBox="0 0 170 40" fill="none" xmlns="http://www.w3.org/2000/svg" class="mb-3"><path fill-rule="evenodd" clip-rule="evenodd" d="M55.4244 0.0154419L48.3411 1.51236V30.0772H55.4244V0.0154419Z" fill="#32BB78"></path><path fill-rule="evenodd" clip-rule="evenodd" d="M35.2702 23.0093C33.3103 23.0093 31.7362 21.4198 31.7362 19.4753C31.7362 17.5154 33.3257 15.9414 35.2702 15.9414C37.23 15.9414 38.8041 17.5309 38.8041 19.4753C38.8041 19.4753 38.8041 19.4753 38.8041 19.4907C38.8041 21.4352 37.23 23.0093 35.2702 23.0093ZM35.2702 8.56482C29.2362 8.56482 24.3442 13.4568 24.3442 19.4753C24.3442 25.4938 29.2362 30.4012 35.2547 30.4012C41.2887 30.4012 46.1807 25.5093 46.1807 19.4907C46.1807 13.4414 41.3041 8.56482 35.2702 8.56482Z" fill="#32BB78"></path><path fill-rule="evenodd" clip-rule="evenodd" d="M35.27 32.9321C37.2299 32.9321 38.804 34.5216 38.804 36.4661C38.804 38.426 37.2145 40 35.27 40C33.3102 40 31.7361 38.4105 31.7361 36.4661C31.7361 34.5216 33.3102 32.9321 35.27 32.9321Z" fill="#32BB78"></path><path fill-rule="evenodd" clip-rule="evenodd" d="M13.017 23.0093H7.70833V18.5957H13.017C14.2361 18.5648 15.2546 19.5216 15.2855 20.7407C15.3164 21.9599 14.3596 22.9784 13.1404 23.0093C13.0941 23.0093 13.0478 23.0093 13.017 23.0093ZM7.70833 7.08333H11.6435C12.8627 7.08333 13.8503 8.07099 13.8503 9.29012C13.8503 10.5093 12.8627 11.4969 11.6435 11.4969H7.70833V7.08333ZM19.5293 14.1821C22.2299 9.81482 20.8719 4.08951 16.5046 1.38889C15.0386 0.478395 13.3565 0 11.6281 0H0.625V30.0617H13.0015C18.125 30.0617 22.2917 25.8951 22.2762 20.7562C22.2762 18.3025 21.2886 15.9259 19.5293 14.1821Z" fill="#32BB78"></path><path fill-rule="evenodd" clip-rule="evenodd" d="M68.7887 16.0339V8.95061H65.2393V3.54938L58.1714 5.04629V23.3488C58.1714 27.6697 60.8566 30.1543 64.8072 30.3549C64.8381 30.3549 64.8998 30.3704 64.9306 30.3704H64.9924C65.085 30.3704 65.1621 30.3858 65.2547 30.3858H65.3473C66.551 30.3858 67.7393 30.0772 68.8041 29.5062V24.2901C68.2948 24.429 67.7547 24.5062 67.23 24.4907C65.8103 24.4907 65.2702 23.2562 65.2702 21.5741V16.0185L68.7887 16.0339Z" fill="#32BB78"></path><path d="M80.8257 1.6358H98.3257V7.73148H87.1838V12.8549H95.872V18.9506H87.1838V30.0926H80.8103V1.6358H80.8257Z" fill="#2F313F"></path><path d="M100.517 0.0308838H106.566V30.0772H100.517V0.0308838Z" fill="#2F313F"></path><path d="M109.02 20.0617C109.02 14.1358 113.464 9.59875 119.56 9.59875C124.853 9.59875 129.529 12.8858 129.529 19.3827C129.545 20.0926 129.498 20.8025 129.406 21.5123H114.869C115.224 23.9197 117.477 25.0309 119.761 25.0309C122.122 25.0309 123.85 23.9043 124.606 22.7469L129.097 26.1111C127.214 28.7963 123.881 30.5247 119.684 30.5247C113.789 30.5247 109.02 26.5123 109.02 20.0617ZM123.526 17.5463C123.001 15.4167 121.165 14.537 119.39 14.537C117.616 14.537 115.548 15.3395 115.023 17.5463H123.526Z" fill="#2F313F"></path><path d="M130.934 20.0617C130.934 14.1358 135.378 9.59875 141.474 9.59875C146.767 9.59875 151.443 12.8858 151.443 19.3827C151.458 20.0926 151.412 20.8025 151.319 21.5123H136.782C137.137 23.9197 139.39 25.0309 141.674 25.0309C144.035 25.0309 145.764 23.9043 146.52 22.7469L151.011 26.1111C149.128 28.7963 145.795 30.5247 141.597 30.5247C135.702 30.5247 130.934 26.5123 130.934 20.0617ZM145.44 17.5463C144.931 15.4167 143.079 14.537 141.304 14.537C139.529 14.537 137.461 15.3395 136.937 17.5463H145.44Z" fill="#2F313F"></path><path d="M156.566 22.7469V15.2932H152.554V10.0463H156.566V4.47528H162.616V10.0463H168.218V15.2932H162.616V21.4969C162.616 23.9043 163.619 24.9074 166.026 24.9074C166.952 24.9074 167.585 24.8302 168.233 24.5524V29.9228C167.307 30.2006 166.227 30.324 164.622 30.324C160.177 30.324 156.566 27.8858 156.566 22.7469Z" fill="#2F313F"></path></svg>